<?xml version="1.0" standalone="no"?>
<!DOCTYPE svg PUBLIC "-//W3C//DTD SVG 20010904//EN"
 "http://www.w3.org/TR/2001/REC-SVG-20010904/DTD/svg10.dtd">
<svg version="1.0" xmlns="http://www.w3.org/2000/svg"
 width="1086.000000pt" height="1086.000000pt" viewBox="0 0 1086.000000 1086.000000"
 preserveAspectRatio="xMidYMid meet">
<metadata>
Created by potrace 1.14, written by Peter Selinger 2001-2017
</metadata>
<g transform="translate(0.000000,1086.000000) scale(0.100000,-0.100000)"
fill="#000000" stroke="none">
<path d="M2435 10581 c-4 -7 -12 -10 -18 -8 -7 2 -24 0 -39 -4 -18 -5 -28 -4
-28 3 0 6 -9 3 -20 -7 -13 -12 -20 -14 -20 -5 0 8 -6 10 -17 5 -10 -4 -31 -9
-48 -11 -16 -3 -39 -8 -50 -13 -43 -17 -121 -42 -132 -43 -7 -1 -13 -5 -13
-10 0 -5 -4 -6 -10 -3 -5 3 -10 1 -10 -4 0 -6 -7 -11 -15 -11 -8 0 -23 -9 -32
-20 -10 -11 -23 -20 -30 -20 -7 0 -13 -4 -13 -10 0 -5 -6 -10 -14 -10 -8 0
-16 -3 -18 -8 -1 -4 -16 -17 -31 -29 -15 -12 -29 -25 -30 -30 -1 -4 -7 -15
-14 -23 -7 -8 -13 -18 -13 -22 0 -5 -8 -17 -17 -27 -35 -38 -42 -49 -36 -55 4
-3 1 -6 -5 -6 -6 0 -9 -7 -5 -17 4 -11 3 -14 -5 -9 -11 6 -17 -12 -13 -36 0
-5 -4 -8 -11 -8 -6 0 -9 -3 -6 -6 4 -3 0 -20 -7 -39 -8 -18 -11 -35 -8 -39 4
-3 1 -6 -6 -6 -7 0 -10 -4 -6 -9 3 -5 1 -12 -4 -15 -5 -3 -7 -15 -4 -25 3 -10
0 -21 -5 -25 -5 -3 -8 -22 -5 -42 2 -19 0 -33 -4 -31 -4 3 -8 -5 -8 -18 0 -13
3 -21 8 -18 4 2 7 -1 7 -6 0 -6 -4 -11 -9 -11 -4 0 -7 -11 -6 -25 2 -14 -1
-27 -6 -31 -5 -3 -5 -13 1 -25 8 -14 7 -19 -2 -19 -9 0 -9 -3 2 -10 11 -7 11
-10 2 -10 -9 0 -10 -5 -2 -19 7 -14 7 -22 0 -26 -8 -5 -7 -11 1 -21 7 -9 8
-14 1 -14 -7 0 -8 -10 -2 -30 6 -21 5 -30 -3 -30 -7 0 -6 -4 3 -10 11 -7 11
-10 2 -10 -9 0 -10 -5 -2 -19 7 -14 7 -22 0 -26 -8 -5 -7 -11 1 -21 7 -9 8
-14 1 -14 -7 0 -8 -10 -2 -30 6 -21 5 -30 -3 -30 -7 0 -6 -4 3 -10 11 -7 11
-10 2 -10 -9 0 -10 -5 -2 -19 7 -14 7 -22 0 -26 -8 -5 -7 -11 1 -21 7 -9 8
-14 1 -14 -7 0 -8 -10 -2 -29 6 -21 5 -31 -3 -35 -8 -3 -9 -7 -2 -13 13 -10
16 -43 4 -43 -6 0 -6 -8 0 -19 6 -10 7 -21 4 -25 -11 -11 -12 -36 -1 -36 6 0
5 -6 -2 -15 -7 -9 -10 -18 -6 -22 3 -3 6 0 6 7 0 7 3 10 6 7 4 -4 1 -13 -6
-22 -9 -11 -9 -15 -1 -15 9 0 9 -5 1 -20 -8 -15 -8 -20 2 -20 9 0 9 -3 -2 -10
-8 -5 -10 -10 -5 -10 6 0 11 -9 11 -20 0 -11 -4 -20 -8 -20 -5 0 -4 -8 1 -19
6 -10 7 -21 4 -25 -11 -11 -12 -36 -1 -36 6 0 5 -6 -2 -15 -7 -9 -10 -18 -6
-22 3 -3 6 0 6 7 0 7 3 10 6 7 4 -4 1 -13 -6 -22 -9 -11 -9 -15 -1 -15 9 0 9
-5 1 -20 -8 -15 -8 -20 2 -20 9 0 9 -3 -2 -10 -8 -5 -10 -10 -5 -10 6 0 11 -9
11 -20 0 -11 -4 -20 -8 -20 -5 0 -4 -8 1 -19 6 -10 7 -21 4 -25 -11 -11 -12
-36 -1 -36 6 0 4 -7 -3 -17 -10 -11 -10 -14 -1 -9 6 4 12 2 12 -3 0 -6 -5 -11
-10 -11 -7 0 -7 -6 0 -19 7 -14 7 -22 0 -26 -8 -5 -7 -11 1 -21 7 -9 8 -14 1
-14 -7 0 -8 -10 -2 -30 6 -21 5 -30 -3 -30 -7 0 -6 -4 3 -10 11 -7 11 -10 2
-10 -9 0 -10 -5 -2 -19 7 -14 7 -22 0 -26 -8 -5 -7 -11 1 -21 7 -9 8 -14 1
-14 -7 0 -8 -10 -2 -29 6 -21 5 -31 -3 -35 -8 -3 -9 -7 -2 -13 13 -10 16 -43
4 -43 -6 0 -6 -8 0 -19 6 -10 7 -21 4 -25 -11 -11 -12 -36 -1 -36 6 0 5 -6 -2
-15 -7 -9 -10 -18 -6 -22 3 -3 6 0 6 7 0 7 3 10 6 7 4 -4 1 -13 -6 -22 -9 -11
-9 -15 -1 -15 9 0 9 -5 1 -20 -8 -15 -8 -20 2 -20 9 0 9 -3 -2 -10 -8 -5 -10
-10 -5 -10 6 0 11 -9 11 -20 0 -11 -4 -20 -8 -20 -5 0 -4 -8 1 -19 6 -10 7
-21 4 -25 -11 -11 -12 -36 -1 -36 6 0 5 -6 -2 -15 -7 -9 -10 -18 -6 -22 3 -3
6 0 6 7 0 7 3 10 6 7 4 -4 1 -13 -6 -22 -9 -11 -9 -15 -1 -15 9 0 9 -5 1 -20
-8 -15 -8 -20 2 -20 9 0 9 -3 -2 -10 -8 -5 -10 -10 -5 -10 6 0 11 -9 11 -20 0
-11 -4 -20 -8 -20 -5 0 -4 -8 1 -19 6 -10 7 -21 4 -25 -11 -11 -12 -36 -1 -36
6 0 5 -7 -3 -16 -7 -9 -9 -18 -3 -22 12 -9 14 -42 3 -42 -6 0 -6 -8 0 -19 6
-10 7 -21 4 -25 -11 -11 -12 -36 -1 -36 6 0 5 -6 -2 -15 -7 -9 -10 -18 -6 -22
3 -3 6 0 6 7 0 7 3 10 6 7 4 -4 1 -13 -6 -22 -9 -11 -9 -15 -1 -15 9 0 9 -5 1
-20 -8 -15 -8 -20 2 -20 9 0 9 -3 -2 -10 -8 -5 -10 -10 -5 -10 6 0 11 -9 11
-20 0 -11 -4 -20 -8 -20 -5 0 -4 -8 1 -19 6 -10 7 -21 4 -25 -11 -11 -12 -36
-1 -36 6 0 5 -6 -2 -15 -7 -9 -10 -18 -6 -22 3 -3 6 0 6 7 0 7 3 10 6 7 4 -4
1 -13 -6 -22 -9 -11 -9 -15 -1 -15 9 0 9 -5 1 -20 -8 -15 -8 -20 2 -20 9 0 9
-3 -2 -10 -8 -5 -10 -10 -5 -10 6 0 11 -9 11 -20 0 -11 -4 -20 -8 -20 -5 0 -4
-8 1 -19 6 -10 7 -21 4 -25 -11 -11 -12 -36 -1 -36 6 0 5 -6 -2 -15 -7 -9 -10
-18 -6 -22 3 -3 6 0 6 7 0 7 3 10 6 7 4 -4 1 -13 -6 -22 -9 -11 -9 -15 -1 -15
9 0 9 -5 1 -20 -8 -15 -8 -20 2 -20 9 0 9 -3 -2 -10 -8 -5 -10 -10 -5 -10 6 0
11 -9 11 -20 0 -11 -4 -20 -8 -20 -5 0 -4 -8 1 -19 6 -10 7 -21 4 -25 -11 -11
-12 -36 -1 -36 6 0 5 -6 -2 -15 -7 -9 -10 -18 -6 -22 3 -3 6 0 6 7 0 7 3 10 6
7 4 -4 1 -13 -6 -22 -9 -11 -9 -15 -1 -15 9 0 9 -5 1 -20 -7 -14 -7 -20 0 -20
5 0 10 -5 10 -11 0 -5 -4 -8 -8 -5 -5 3 -9 -1 -9 -9 0 -8 4 -15 9 -15 5 0 4
-9 -2 -20 -8 -15 -8 -20 2 -20 9 0 9 -3 -2 -10 -8 -5 -10 -10 -5 -10 6 0 11
-9 11 -20 0 -11 -4 -20 -8 -20 -5 0 -4 -8 1 -19 6 -10 7 -21 4 -25 -11 -11
-12 -36 -1 -36 6 0 5 -6 -2 -15 -7 -9 -10 -18 -6 -22 3 -3 6 0 6 7 0 7 3 10 6
7 4 -4 1 -13 -6 -22 -9 -11 -9 -15 -1 -15 8 0 9 -5 1 -19 -7 -14 -6 -21 3 -25
9 -5 9 -7 0 -12 -9 -4 -10 -11 -3 -24 7 -13 7 -21 0 -25 -8 -5 -7 -11 1 -21 7
-9 8 -14 1 -14 -7 0 -8 -10 -2 -30 6 -21 5 -30 -3 -30 -7 0 -6 -4 3 -10 11 -7
11 -10 2 -10 -9 0 -10 -5 -2 -19 7 -14 7 -22 0 -26 -8 -5 -7 -11 1 -21 7 -9 8
-14 1 -14 -7 0 -8 -10 -2 -29 6 -21 5 -31 -3 -35 -8 -3 -9 -7 -2 -13 13 -10
16 -43 4 -43 -6 0 -6 -8 0 -19 6 -10 7 -21 4 -25 -11 -11 -12 -36 -1 -36 6 0
5 -6 -2 -15 -7 -9 -10 -18 -6 -22 3 -3 6 0 6 7 0 7 3 10 6 7 4 -4 1 -13 -6
-22 -9 -11 -9 -15 -1 -15 9 0 9 -5 1 -20 -8 -15 -8 -20 2 -20 9 0 9 -3 -2 -10
-8 -5 -10 -10 -5 -10 6 0 11 -9 11 -20 0 -11 -4 -20 -8 -20 -5 0 -4 -8 1 -19
6 -10 7 -21 4 -25 -11 -11 -12 -36 -1 -36 6 0 5 -6 -2 -15 -7 -9 -10 -18 -6
-22 3 -3 6 0 6 7 0 7 3 10 6 7 4 -4 1 -13 -6 -22 -9 -11 -9 -15 -1 -15 9 0 9
-5 1 -20 -8 -15 -8 -20 2 -20 9 0 9 -3 -2 -10 -8 -5 -10 -10 -5 -10 6 0 11 -9
11 -20 0 -11 -4 -20 -8 -20 -5 0 -4 -8 1 -19 6 -10 7 -21 4 -25 -11 -11 -12
-36 -1 -36 6 0 4 -7 -3 -17 -10 -11 -10 -14 -1 -9 6 4 12 2 12 -3 0 -6 -5 -11
-10 -11 -7 0 -7 -6 0 -19 7 -14 7 -22 0 -26 -8 -5 -7 -11 1 -21 7 -9 8 -14 1
-14 -7 0 -8 -10 -2 -30 6 -21 5 -30 -3 -30 -7 0 -6 -4 3 -10 11 -7 11 -10 2
-10 -9 0 -10 -5 -2 -19 7 -14 7 -22 0 -26 -8 -5 -7 -11 1 -21 7 -9 8 -14 1
-14 -7 0 -8 -10 -2 -30 5 -18 5 -30 -1 -30 -5 0 -9 -5 -9 -11 0 -5 6 -7 13 -3
8 5 8 2 -2 -9 -9 -12 -10 -17 -2 -17 9 0 9 -5 1 -20 -8 -15 -8 -20 2 -20 9 0
9 -3 -2 -10 -8 -5 -10 -10 -5 -10 6 0 11 -9 11 -20 0 -11 -4 -20 -8 -20 -5 0
-4 -8 1 -19 6 -10 7 -21 4 -25 -11 -11 -12 -36 -1 -36 6 0 5 -6 -2 -15 -7 -9
-10 -18 -6 -22 3 -3 6 0 6 7 0 7 3 10 6 7 4 -4 1 -13 -6 -22 -9 -11 -9 -15 -1
-15 9 0 9 -5 1 -20 -7 -14 -7 -20 0 -20 5 0 10 -5 10 -11 0 -5 -4 -8 -8 -5 -5
3 -9 -1 -9 -9 0 -8 4 -15 9 -15 5 0 4 -9 -2 -20 -8 -15 -8 -20 2 -20 9 0 9 -3
-2 -10 -8 -5 -10 -10 -5 -10 6 0 11 -9 11 -20 0 -11 -4 -20 -8 -20 -5 0 -4 -8
1 -19 6 -10 7 -21 4 -25 -11 -11 -12 -36 -1 -36 6 0 5 -6 -2 -15 -7 -9 -10
-18 -6 -22 3 -3 6 0 6 7 0 7 3 10 6 7 4 -4 1 -13 -6 -22 -9 -11 -9 -15 -1 -15
9 0 9 -5 1 -20 -8 -15 -8 -20 2 -20 9 0 9 -3 -2 -10 -8 -5 -10 -10 -5 -10 6 0
11 -9 11 -20 0 -11 -4 -20 -8 -20 -5 0 -4 -8 1 -19 6 -10 7 -21 4 -25 -11 -11
-12 -36 -1 -36 6 0 5 -6 -2 -15 -7 -9 -10 -18 -6 -22 3 -3 6 0 6 7 0 7 3 10 6
7 4 -4 1 -13 -6 -22 -9 -11 -9 -15 -1 -15 9 0 9 -5 1 -20 -8 -15 -8 -20 2 -20
9 0 9 -3 -2 -10 -8 -5 -10 -10 -5 -10 6 0 11 -9 11 -20 0 -11 -4 -20 -8 -20
-5 0 -4 -8 1 -19 6 -10 7 -21 4 -25 -11 -11 -12 -36 -1 -36 6 0 5 -6 -2 -15
-7 -9 -10 -18 -6 -22 3 -3 6 0 6 7 0 7 3 10 6 7 4 -4 1 -13 -6 -22 -9 -11 -9
-15 -1 -15 9 0 9 -5 1 -20 -8 -15 -8 -20 2 -20 9 0 9 -3 -2 -10 -8 -5 -10 -10
-5 -10 6 0 11 -9 11 -20 0 -11 -4 -20 -8 -20 -5 0 -4 -8 1 -19 6 -10 7 -21 4
-25 -11 -11 -12 -36 -1 -36 6 0 5 -7 -3 -16 -7 -9 -9 -18 -3 -22 12 -9 14 -42
3 -42 -6 0 -6 -8 0 -19 6 -10 7 -21 4 -25 -11 -11 -12 -36 -1 -36 6 0 5 -6 -2
-15 -7 -9 -10 -18 -6 -22 3 -3 6 0 6 7 0 7 3 10 6 7 4 -4 1 -13 -6 -22 -9 -11
-9 -15 -1 -15 9 0 9 -5 1 -20 -8 -15 -8 -20 2 -20 9 0 9 -3 -2 -10 -8 -5 -10
-10 -5 -10 6 0 11 -9 11 -20 0 -11 -4 -20 -8 -20 -5 0 -4 -8 1 -19 6 -10 7
-21 4 -25 -11 -11 -12 -36 -1 -36 6 0 5 -6 -2 -15 -7 -9 -10 -18 -6 -22 3 -3
6 0 6 7 0 7 3 10 6 7 4 -4 1 -13 -6 -22 -9 -11 -9 -15 -1 -15 9 0 9 -5 1 -20
-8 -15 -8 -20 2 -20 9 0 9 -3 -2 -10 -8 -5 -10 -10 -5 -10 6 0 11 -9 11 -20 0
-11 -4 -20 -8 -20 -5 0 -4 -8 1 -19 6 -10 7 -21 4 -25 -11 -11 -12 -36 -1 -36
6 0 4 -7 -3 -17 -10 -11 -10 -14 -1 -9 6 4 12 2 12 -3 0 -6 -5 -11 -10 -11 -7
0 -7 -6 0 -19 7 -14 7 -22 0 -26 -8 -5 -7 -11 1 -21 7 -9 8 -14 1 -14 -7 0 -8
-10 -2 -30 6 -21 5 -30 -3 -30 -7 0 -6 -4 3 -10 11 -7 11 -10 2 -10 -9 0 -10
-5 -2 -19 7 -14 7 -22 0 -26 -8 -5 -7 -11 1 -21 7 -9 8 -14 1 -14 -7 0 -8 -10
-2 -29 6 -21 5 -31 -3 -35 -8 -3 -9 -7 -2 -13 13 -10 16 -43 4 -43 -6 0 -6 -8
0 -19 6 -10 7 -21 4 -25 -11 -11 -12 -36 -1 -36 6 0 5 -6 -2 -15 -7 -9 -10
-18 -6 -22 3 -3 6 0 6 7 0 7 3 10 6 7 4 -4 1 -13 -6 -22 -9 -11 -9 -15 -1 -15
9 0 9 -5 1 -20 -8 -15 -8 -20 2 -20 9 0 9 -3 -2 -10 -8 -5 -10 -10 -5 -10 6 0
11 -9 11 -20 0 -11 -4 -20 -8 -20 -5 0 -4 -8 1 -19 6 -10 7 -21 4 -25 -11 -11
-12 -36 -1 -36 6 0 5 -6 -2 -15 -7 -9 -10 -18 -6 -22 3 -3 6 0 6 7 0 7 3 10 6
7 4 -4 1 -13 -6 -22 -9 -11 -9 -15 -1 -15 9 0 9 -5 1 -20 -8 -15 -8 -20 2 -20
9 0 9 -3 -2 -10 -8 -5 -10 -10 -5 -10 6 0 11 -9 11 -20 0 -11 -4 -20 -8 -20
-5 0 -4 -8 1 -19 6 -10 7 -21 4 -25 -11 -11 -12 -36 -1 -36 6 0 4 -7 -3 -17
-10 -11 -10 -14 -2 -9 7 4 13 2 13 -3 0 -6 -5 -11 -10 -11 -7 0 -7 -6 0 -19 7
-14 7 -22 0 -26 -8 -5 -7 -11 1 -21 7 -9 8 -14 1 -14 -7 0 -8 -10 -2 -30 6
-21 5 -30 -3 -30 -7 0 -6 -4 3 -10 11 -7 11 -10 2 -10 -9 0 -10 -5 -2 -19 7
-14 7 -22 0 -26 -8 -5 -7 -11 1 -21 7 -9 8 -14 1 -14 -7 0 -8 -10 -2 -30 6
-21 5 -30 -3 -30 -7 0 -6 -4 3 -10 11 -7 11 -10 2 -10 -9 0 -10 -5 -2 -19 7
-14 7 -22 0 -26 -8 -5 -7 -11 1 -21 7 -9 8 -14 1 -14 -7 0 -8 -10 -2 -30 6
-21 5 -30 -3 -30 -7 0 -6 -4 3 -10 11 -7 11 -10 2 -10 -9 0 -10 -5 -2 -19 7
-14 7 -22 0 -26 -8 -5 -7 -11 1 -21 7 -9 8 -14 1 -14 -7 0 -8 -10 -2 -29 6
-21 5 -31 -3 -35 -8 -3 -9 -7 -2 -13 13 -10 16 -43 4 -43 -6 0 -6 -8 0 -19 6
-10 7 -21 4 -25 -11 -11 -12 -36 -1 -36 6 0 5 -6 -2 -15 -7 -9 -10 -18 -6 -22
3 -3 6 0 6 7 0 7 3 10 6 7 4 -4 1 -13 -6 -22 -9 -11 -9 -15 -1 -15 9 0 9 -5 1
-20 -8 -15 -8 -20 2 -20 9 0 9 -3 -2 -10 -8 -5 -10 -10 -5 -10 6 0 11 -9 11
-20 0 -11 -4 -20 -8 -20 -5 0 -4 -8 1 -19 6 -10 7 -21 4 -25 -11 -11 -12 -36
-1 -36 6 0 5 -6 -2 -15 -7 -9 -10 -18 -6 -22 3 -3 6 0 6 7 0 7 3 10 6 7 4 -4
1 -13 -6 -22 -9 -11 -9 -15 -1 -15 9 0 9 -5 1 -20 -8 -15 -8 -20 2 -20 9 0 9
-3 -2 -10 -9 -6 -10 -10 -3 -10 8 0 11 -13 9 -36 -1 -19 2 -38 7 -41 5 -3 3
-9 -4 -14 -10 -6 -10 -9 -2 -9 7 0 10 -7 7 -15 -4 -8 -1 -15 6 -15 10 0 10 -3
0 -15 -10 -12 -10 -15 0 -15 7 0 10 -6 7 -14 -3 -7 0 -19 6 -26 9 -10 9 -11 0
-6 -7 4 -9 -1 -6 -14 3 -11 8 -18 12 -16 3 2 7 -7 7 -20 1 -13 5 -32 10 -42 4
-9 8 -20 9 -24 2 -5 3 -9 5 -10 1 -2 3 -12 5 -23 2 -11 9 -21 15 -23 5 -2 8
-8 4 -13 -3 -5 0 -9 6 -9 6 0 8 -5 5 -10 -3 -6 -1 -10 5 -10 6 0 8 -4 5 -10
-3 -5 -2 -10 4 -10 5 0 13 -9 16 -20 4 -11 17 -32 31 -45 13 -13 24 -29 24
-35 0 -6 4 -8 10 -5 5 3 10 -2 10 -11 0 -10 3 -15 6 -11 3 3 19 -8 35 -24 15
-16 32 -29 37 -29 4 0 18 -9 30 -20 12 -11 24 -20 27 -20 21 1 25 -1 21 -9 -6
-9 30 -24 52 -22 6 1 12 -3 12 -9 0 -6 4 -8 10 -5 5 3 10 2 10 -2 0 -5 12 -10
26 -11 14 -1 31 -5 37 -9 7 -4 23 -8 37 -9 36 -2 54 -8 63 -19 4 -6 10 -5 16
4 6 9 11 10 15 2 4 -6 12 -9 17 -6 5 4 9 1 9 -4 0 -6 5 -11 11 -11 5 0 7 5 3
11 -5 8 -1 8 14 0 15 -8 22 -8 25 2 4 9 6 9 6 -1 1 -7 5 -10 11 -7 5 3 19 1
30 -5 14 -8 20 -8 20 0 0 7 6 8 19 1 10 -6 21 -7 25 -4 11 11 36 12 36 1 0 -6
6 -5 15 2 9 7 18 10 22 6 3 -3 0 -6 -7 -6 -7 0 -10 -3 -7 -6 4 -4 13 -1 22 6
11 9 15 9 15 1 0 -8 5 -9 19 -1 14 7 21 6 24 -3 3 -9 7 -9 20 2 12 9 17 10 17
2 0 -8 5 -9 19 -1 14 7 21 6 24 -3 3 -9 7 -9 20 2 12 9 17 10 17 2 0 -8 5 -9
19 -1 14 7 21 6 24 -3 3 -9 7 -9 20 2 12 9 17 10 17 2 0 -9 5 -9 20 -1 15 8
20 8 20 -2 0 -9 3 -9 10 2 5 8 10 10 10 5 0 -6 9 -11 20 -11 11 0 20 4 20 8 0
5 8 4 19 -1 10 -6 21 -7 25 -4 9 10 36 13 36 4 0 -4 9 -7 20 -7 11 0 20 4 20
8 0 5 8 4 19 -1 10 -6 21 -7 25 -4 9 10 36 13 36 4 0 -4 9 -7 20 -7 11 0 20 3
20 7 0 4 9 9 20 12 11 3 18 2 16 -1 -7 -12 1139 -6 1160 6 13 7 26 7 37 1 9
-6 17 -6 17 -2 0 5 15 10 33 12 42 4 82 9 82 11 0 1 17 6 48 13 6 1 18 6 25
10 6 5 17 5 22 2 6 -3 10 -1 10 5 0 6 5 8 10 5 6 -3 10 -1 10 5 0 6 5 8 10 5
6 -3 10 -1 10 4 0 6 3 11 8 10 12 -2 52 13 52 20 0 3 14 12 31 20 43 19 179
156 179 180 0 5 5 11 10 13 6 2 12 13 13 25 0 12 4 20 7 18 3 -2 12 5 19 17 7
11 8 17 2 14 -7 -4 -8 -1 -5 8 3 9 11 16 17 16 6 0 7 3 4 7 -4 3 -2 12 4 20 6
7 8 13 4 13 -4 0 0 12 10 26 11 18 12 24 4 18 -11 -6 -12 -5 -2 8 7 8 14 27
15 42 1 14 5 26 8 26 3 0 6 23 8 51 1 28 7 60 13 71 9 16 8 19 -3 12 -11 -6
-11 -5 1 9 10 13 10 17 1 17 -9 0 -9 4 1 17 10 11 10 14 2 9 -7 -4 -13 -2 -13
3 0 6 5 11 11 11 8 0 8 4 0 14 -9 11 -9 15 1 19 10 4 10 6 -1 6 -11 1 -11 4
-1 16 10 12 10 15 0 15 -10 0 -10 3 -1 14 9 11 9 15 -1 19 -10 4 -10 6 1 6 11
1 11 4 1 16 -7 8 -8 15 -3 15 5 0 9 9 9 20 0 11 -4 20 -9 20 -5 0 -4 7 3 15 7
8 8 15 3 15 -5 0 -10 7 -10 15 0 8 5 15 10 15 5 0 4 6 -2 14 -9 11 -9 15 1 19
10 4 10 6 -1 6 -11 1 -11 4 -1 16 10 12 10 15 0 15 -10 0 -10 3 -1 14 9 11 9
15 -1 19 -10 4 -10 6 1 6 11 1 11 4 1 16 -7 8 -8 15 -3 15 5 0 9 9 9 20 0 11
-4 20 -9 20 -5 0 -4 7 3 15 7 8 8 15 3 15 -5 0 -10 7 -10 15 0 8 5 15 10 15 5
0 4 6 -2 14 -9 11 -9 15 1 19 10 4 10 6 -1 6 -11 1 -11 4 -1 16 10 12 10 15 0
15 -10 0 -10 3 -1 14 9 11 9 15 -1 19 -10 4 -10 6 1 6 11 1 11 4 1 16 -7 8 -8
15 -3 15 5 0 9 9 9 20 0 11 -4 20 -9 20 -5 0 -4 7 3 15 7 8 8 15 3 15 -5 0
-10 7 -10 15 0 8 5 15 10 15 5 0 4 6 -2 14 -9 11 -9 15 1 19 10 4 10 6 -1 6
-11 1 -11 4 -1 16 10 12 10 15 0 15 -10 0 -10 3 -1 14 9 11 9 15 -1 19 -10 4
-10 6 1 6 11 1 11 4 1 16 -7 8 -8 15 -3 15 5 0 9 9 9 20 0 11 -4 20 -9 20 -5
0 -4 7 3 15 7 8 8 15 3 15 -5 0 -10 7 -10 15 0 8 5 15 10 15 5 0 4 6 -2 14 -9
11 -9 15 1 19 10 4 10 6 -1 6 -11 1 -11 4 -1 16 10 12 10 15 0 15 -10 0 -10 3
-1 14 9 11 9 15 -1 19 -10 4 -10 6 1 6 11 1 11 4 1 16 -7 8 -8 15 -3 15 5 0 9
9 9 20 0 11 -4 20 -9 20 -5 0 -4 7 3 15 7 8 8 15 3 15 -5 0 -10 7 -10 15 0 8
5 15 10 15 5 0 4 6 -2 14 -9 11 -9 15 1 19 10 4 10 6 -1 6 -11 1 -11 4 -1 16
10 12 10 15 0 15 -10 0 -10 3 -1 14 9 11 9 15 -1 19 -10 4 -10 6 1 6 11 1 11
4 1 16 -7 8 -8 15 -3 15 5 0 9 9 9 20 0 11 -4 20 -9 20 -5 0 -4 7 3 15 7 8 8
15 3 15 -5 0 -10 7 -10 15 0 8 5 15 10 15 5 0 4 6 -2 14 -9 11 -9 15 1 19 10
4 10 6 -1 6 -11 1 -11 4 -1 16 10 12 10 15 0 15 -10 0 -10 3 -1 14 9 11 9 15
-1 19 -10 4 -10 6 1 6 11 1 11 4 1 16 -7 8 -8 15 -3 15 5 0 9 9 9 20 0 11 -4
20 -9 20 -5 0 -4 7 3 15 7 8 8 15 3 15 -5 0 -10 7 -10 15 0 8 5 15 10 15 5 0
4 6 -2 14 -9 11 -9 15 1 19 10 4 10 6 -1 6 -11 1 -11 4 -1 16 10 12 10 15 0
15 -10 0 -10 3 -1 14 9 11 9 15 -1 19 -10 4 -10 6 1 6 11 1 11 4 1 16 -7 8 -8
15 -3 15 5 0 9 9 9 20 0 11 -4 20 -9 20 -5 0 -4 7 3 15 7 8 8 15 3 15 -5 0
-10 7 -10 15 0 8 5 15 10 15 5 0 4 6 -2 14 -9 11 -9 15 1 19 10 4 10 6 -1 6
-11 1 -11 4 -1 16 10 12 10 15 0 15 -10 0 -10 3 -1 14 9 11 9 15 -1 19 -10 4
-10 6 1 6 11 1 11 4 1 16 -7 8 -8 15 -3 15 5 0 9 9 9 20 0 11 -4 20 -9 20 -5
0 -4 7 3 15 7 8 8 15 3 15 -5 0 -10 7 -10 15 0 8 5 15 10 15 5 0 4 6 -2 14 -9
11 -9 15 1 19 10 4 10 6 -1 6 -11 1 -11 4 -1 16 10 12 10 15 0 15 -10 0 -10 3
-1 14 9 11 9 15 -1 19 -10 4 -10 6 1 6 11 1 11 4 1 16 -7 8 -8 15 -3 15 5 0 9
9 9 20 0 11 -4 20 -9 20 -5 0 -4 7 3 15 7 8 8 15 3 15 -5 0 -10 7 -10 15 0 8
5 15 10 15 5 0 4 6 -2 14 -9 11 -9 15 1 19 10 4 10 6 -1 6 -11 1 -11 4 -1 16
10 12 10 15 0 15 -10 0 -10 3 -1 14 9 11 9 15 -1 19 -10 4 -10 6 1 6 11 1 11
4 1 16 -7 8 -8 15 -3 15 5 0 9 9 9 20 0 11 -4 20 -9 20 -5 0 -4 7 3 15 7 8 8
15 3 15 -5 0 -10 7 -10 15 0 8 5 15 10 15 5 0 4 6 -2 14 -9 11 -9 15 1 19 10
4 10 6 -1 6 -11 1 -11 4 -1 16 10 12 10 15 0 15 -10 0 -10 3 -1 14 9 11 9 15
-1 19 -10 4 -10 6 1 6 11 1 11 4 1 16 -7 8 -8 15 -3 15 5 0 9 9 9 20 0 11 -4
20 -9 20 -5 0 -4 7 3 15 7 8 8 15 3 15 -5 0 -10 7 -10 15 0 8 5 15 10 15 5 0
4 6 -2 14 -9 11 -9 15 1 19 10 4 10 6 -1 6 -11 1 -11 4 -1 16 10 12 10 15 0
15 -10 0 -10 3 -1 14 9 11 9 15 -1 19 -10 4 -10 6 1 6 11 1 11 4 1 16 -7 8 -8
15 -3 15 5 0 9 9 9 20 0 11 -4 20 -9 20 -5 0 -4 7 3 15 7 8 8 15 3 15 -5 0
-10 7 -10 15 0 8 5 15 10 15 5 0 4 6 -2 14 -9 11 -9 15 1 19 10 4 10 6 -1 6
-11 1 -11 4 -1 16 10 12 10 15 0 15 -10 0 -10 3 -1 14 9 11 9 15 -1 19 -10 4
-10 6 1 6 11 1 11 4 1 16 -7 8 -8 15 -3 15 5 0 9 9 9 20 0 11 -4 20 -9 20 -5
0 -4 7 3 15 7 8 8 15 3 15 -5 0 -10 7 -10 15 0 8 5 15 10 15 5 0 4 7 -3 15
-10 12 -10 15 1 15 12 0 12 2 0 9 -9 6 -10 10 -2 16 8 4 9 11 3 18 -11 14 -2
41 13 43 6 1 21 5 35 9 14 3 20 3 13 -2 -12 -9 2488 -10 2503 -1 5 4 18 0 29
-8 10 -8 16 -14 13 -14 -4 0 -3 -13 2 -30 5 -17 5 -30 0 -30 -5 0 -7 -7 -4
-15 4 -8 1 -22 -6 -30 -10 -12 -10 -15 0 -15 10 0 10 -3 0 -15 -10 -12 -10
-15 0 -15 10 0 10 -3 0 -15 -10 -12 -10 -15 0 -15 10 0 10 -3 0 -15 -10 -12
-10 -15 0 -15 10 0 10 -3 0 -15 -10 -12 -10 -15 0 -15 10 0 10 -3 0 -15 -10
-12 -10 -15 0 -15 10 0 10 -3 0 -15 -10 -12 -10 -15 0 -15 10 0 10 -3 0 -15
-10 -12 -10 -15 0 -15 10 0 10 -3 0 -15 -10 -12 -10 -15 0 -15 10 0 10 -3 0
-15 -10 -12 -10 -15 0 -15 10 0 10 -3 0 -15 -10 -12 -10 -15 0 -15 10 0 10 -3
0 -15 -10 -12 -10 -15 0 -15 10 0 10 -3 0 -15 -10 -12 -10 -15 0 -15 10 0 10
-3 0 -15 -10 -12 -10 -15 0 -15 10 0 10 -3 0 -15 -10 -12 -10 -15 0 -15 10 0
10 -3 0 -15 -10 -12 -10 -15 0 -15 10 0 10 -3 0 -15 -10 -12 -10 -15 0 -15 10
0 10 -3 0 -15 -10 -12 -10 -15 0 -15 10 0 10 -3 0 -15 -10 -12 -10 -15 0 -15
10 0 10 -3 0 -15 -10 -12 -10 -15 0 -15 10 0 10 -3 0 -15 -10 -12 -10 -15 0
-15 10 0 10 -3 0 -15 -10 -12 -10 -15 0 -15 10 0 10 -3 0 -15 -10 -12 -10 -15
0 -15 10 0 10 -3 0 -15 -10 -12 -10 -15 0 -15 10 0 10 -3 0 -15 -10 -12 -10
-15 0 -15 10 0 10 -3 0 -15 -10 -12 -10 -15 0 -15 10 0 10 -3 0 -15 -10 -12
-10 -15 0 -15 10 0 10 -3 0 -15 -10 -12 -10 -15 0 -15 10 0 10 -3 0 -15 -10
-12 -10 -15 0 -15 10 0 10 -3 0 -15 -10 -12 -10 -15 0 -15 10 0 10 -3 0 -15
-10 -12 -10 -15 0 -15 10 0 10 -3 0 -15 -10 -12 -10 -15 0 -15 10 0 10 -3 0
-15 -10 -12 -10 -15 0 -15 10 0 10 -3 0 -15 -10 -12 -10 -15 0 -15 10 0 10 -3
0 -15 -10 -12 -10 -15 0 -15 10 0 10 -3 0 -15 -10 -12 -10 -15 0 -15 10 0 10
-3 0 -15 -10 -12 -10 -15 0 -15 10 0 10 -3 0 -15 -10 -12 -10 -15 0 -15 10 0
10 -3 0 -15 -10 -12 -10 -15 0 -15 10 0 10 -3 0 -15 -10 -12 -10 -15 0 -15 10
0 10 -3 0 -15 -10 -12 -10 -15 0 -15 10 0 10 -3 0 -15 -10 -12 -10 -15 0 -15
10 0 10 -3 0 -15 -10 -12 -10 -15 0 -15 9 0 10 -3 1 -13 -8 -10 -7 -17 1 -25
9 -9 9 -12 -1 -12 -11 0 -11 -3 -1 -15 10 -12 10 -15 0 -15 -10 0 -10 -3 0
-15 10 -12 10 -15 0 -15 -10 0 -10 -3 0 -15 10 -12 10 -15 0 -15 -10 0 -10 -3
0 -15 10 -12 10 -15 0 -15 -10 0 -10 -3 0 -15 10 -12 10 -15 0 -15 -10 0 -10
-3 0 -15 10 -12 10 -15 0 -15 -10 0 -10 -3 0 -15 10 -12 10 -15 0 -15 -10 0
-10 -3 0 -15 10 -12 10 -15 0 -15 -10 0 -10 -3 0 -15 10 -12 10 -15 0 -15 -10
0 -10 -3 0 -15 10 -12 10 -15 0 -15 -10 0 -10 -3 0 -15 10 -12 10 -15 0 -15
-10 0 -10 -3 0 -15 10 -12 10 -15 0 -15 -10 0 -10 -3 0 -15 10 -12 10 -15 0
-15 -10 0 -10 -3 0 -15 10 -12 10 -15 0 -15 -10 0 -10 -3 0 -15 10 -12 10 -15
0 -15 -10 0 -10 -3 0 -15 10 -12 10 -15 0 -15 -10 0 -10 -3 0 -15 10 -12 10
-15 0 -15 -10 0 -10 -3 0 -15 10 -12 10 -15 0 -15 -10 0 -10 -3 0 -15 10 -12
10 -15 0 -15 -10 0 -10 -3 0 -15 10 -12 10 -15 0 -15 -10 0 -10 -3 0 -15 10
-12 10 -15 0 -15 -10 0 -10 -3 0 -15 10 -12 10 -15 0 -15 -10 0 -10 -3 0 -15
10 -12 10 -15 0 -15 -10 0 -10 -3 0 -15 10 -12 10 -15 0 -15 -10 0 -10 -3 0
-15 10 -12 10 -15 0 -15 -10 0 -10 -3 0 -15 10 -12 10 -15 0 -15 -10 0 -10 -3
0 -15 10 -12 10 -15 0 -15 -10 0 -10 -3 0 -15 10 -12 10 -15 0 -15 -10 0 -10
-3 0 -15 10 -12 10 -15 0 -15 -10 0 -10 -3 0 -15 10 -12 10 -15 0 -15 -10 0
-10 -3 0 -15 10 -12 10 -15 0 -15 -10 0 -10 -3 0 -15 10 -12 10 -15 0 -15 -10
0 -10 -3 0 -15 10 -12 10 -15 0 -15 -10 0 -10 -3 0 -15 10 -12 10 -15 0 -15
-10 0 -10 -3 0 -15 10 -12 10 -15 0 -15 -10 0 -10 -3 0 -15 10 -12 10 -15 0
-15 -10 0 -10 -3 0 -15 10 -12 10 -15 0 -15 -10 0 -10 -3 0 -15 10 -12 10 -15
0 -15 -10 0 -10 -3 0 -15 10 -12 10 -15 0 -15 -10 0 -10 -3 0 -15 10 -12 10
-15 0 -15 -10 0 -10 -3 0 -15 10 -12 10 -15 0 -15 -10 0 -10 -3 0 -15 10 -12
10 -15 0 -15 -10 0 -10 -3 0 -15 10 -12 10 -15 0 -15 -10 0 -10 -3 0 -15 10
-12 10 -15 0 -15 -10 0 -10 -3 0 -15 10 -12 10 -15 0 -15 -10 0 -10 -3 0 -15
10 -12 10 -15 0 -15 -10 0 -10 -3 0 -15 10 -12 10 -15 0 -15 -10 0 -10 -3 0
-15 10 -12 10 -15 0 -15 -10 0 -10 -3 0 -15 10 -12 10 -15 0 -15 -10 0 -10 -3
0 -15 10 -12 10 -15 0 -15 -10 0 -10 -3 0 -15 10 -12 10 -15 0 -15 -10 0 -10
-3 0 -15 10 -12 10 -15 0 -15 -10 0 -10 -3 0 -15 10 -12 10 -15 0 -15 -10 0
-10 -3 0 -15 10 -12 10 -15 0 -15 -10 0 -10 -3 0 -15 10 -12 10 -15 0 -15 -10
0 -10 -3 0 -15 10 -12 10 -15 0 -15 -10 0 -10 -3 0 -15 10 -12 10 -15 0 -15
-10 0 -10 -3 0 -15 10 -12 10 -15 0 -15 -10 0 -10 -3 0 -15 10 -12 10 -15 0
-15 -10 0 -10 -3 0 -15 10 -12 10 -15 0 -15 -10 0 -10 -3 0 -15 10 -12 10 -15
0 -15 -10 0 -10 -3 0 -15 10 -12 10 -15 0 -15 -10 0 -10 -3 0 -15 10 -12 10
-15 0 -15 -10 0 -10 -3 0 -15 10 -12 10 -15 0 -15 -10 0 -10 -3 0 -15 10 -12
10 -15 0 -15 -10 0 -10 -3 0 -15 10 -12 10 -15 0 -15 -10 0 -10 -3 0 -15 10
-12 10 -15 0 -15 -10 0 -10 -3 0 -15 10 -12 10 -15 0 -15 -10 0 -10 -3 0 -15
10 -12 10 -15 0 -15 -10 0 -10 -3 0 -15 10 -12 10 -15 0 -15 -10 0 -10 -3 0
-15 7 -8 9 -15 5 -15 -4 0 -2 -6 4 -14 9 -11 9 -15 -1 -19 -10 -4 -10 -6 0 -6
6 -1 12 -6 12 -12 0 -5 -5 -7 -11 -3 -6 3 -3 -5 6 -20 11 -16 13 -26 6 -26
-11 0 -11 -1 20 -61 8 -16 8 -19 -1 -14 -7 4 -5 -7 4 -24 9 -17 14 -31 10 -31
-4 0 -1 -7 6 -15 7 -8 9 -15 5 -15 -5 0 0 -9 9 -19 10 -11 15 -25 11 -30 -3
-6 -1 -11 5 -11 6 0 8 -5 5 -10 -3 -5 -1 -10 4 -10 6 0 11 -7 11 -15 0 -8 5
-15 10 -15 6 0 10 -7 10 -15 0 -8 5 -15 11 -15 5 0 8 -4 5 -8 -3 -5 5 -18 17
-29 12 -11 29 -30 37 -41 8 -12 22 -25 32 -28 10 -3 18 -12 18 -20 0 -8 7 -14
15 -14 8 0 15 -4 15 -10 0 -5 7 -10 15 -10 8 0 15 -4 15 -10 0 -5 7 -10 16
-10 8 0 13 -4 10 -8 -2 -4 5 -9 16 -9 12 -1 24 -7 28 -13 4 -7 9 -11 11 -10 2
0 21 -6 42 -15 21 -9 52 -17 68 -18 16 -1 29 -6 29 -10 0 -5 5 -5 10 -2 6 3
10 1 10 -6 0 -8 4 -9 13 0 9 7 17 7 23 1 6 -6 27 -11 47 -12 20 -1 37 -5 37
-10 0 -5 9 -4 20 2 14 7 20 7 20 0 0 -5 5 -10 11 -10 5 0 7 6 3 13 -6 9 -4 9
7 1 19 -15 153 -18 179 -4 14 8 20 8 20 0 0 -8 6 -8 20 0 14 8 20 8 20 0 0 -7
6 -7 21 1 12 6 30 9 40 6 10 -3 19 -1 19 3 0 5 11 7 25 6 14 -2 30 2 35 9 6 7
19 11 29 8 10 -3 22 0 25 5 3 6 15 8 26 5 11 -3 20 -1 20 5 0 5 7 13 16 16 10
4 13 2 8 -7 -4 -6 2 -4 13 6 11 9 23 14 26 10 4 -3 7 -1 7 6 0 7 4 10 9 7 5
-3 14 1 21 9 7 8 19 15 27 15 7 0 16 7 19 15 4 8 10 12 15 9 5 -3 9 0 9 6 0 6
5 8 10 5 6 -4 9 -1 8 7 -2 7 3 12 10 10 6 -1 12 5 12 14 0 8 5 12 10 9 6 -3
10 -1 10 5 0 6 5 8 10 5 6 -3 10 1 10 9 0 9 5 16 11 16 5 0 8 4 5 9 -3 5 1 11
9 15 8 3 15 13 15 21 0 9 4 14 9 10 5 -3 12 4 16 15 3 11 11 20 16 20 6 0 7 5
4 10 -3 6 -1 10 5 10 6 0 9 4 5 9 -3 5 1 16 9 23 14 15 31 58 28 71 -1 4 2 7
8 7 5 0 10 8 10 18 0 10 6 24 13 31 10 11 9 12 -3 6 -12 -7 -13 -6 -3 7 7 8
10 18 6 21 -3 4 0 7 7 7 7 0 10 3 7 7 -4 3 -1 13 6 21 10 13 9 14 -2 7 -11 -6
-12 -5 -5 6 9 15 12 29 16 71 1 16 5 28 8 28 3 0 6 9 6 20 0 11 -4 20 -9 20
-5 0 -4 6 2 13 6 8 8 17 4 20 -3 4 -1 7 5 7 7 0 12 5 12 11 0 5 -5 7 -12 3 -7
-5 -8 -3 -3 6 4 7 8 1042 8 2299 0 1453 3 2293 9 2305 8 14 7 17 -4 10 -11 -6
-11 -5 1 9 9 11 10 17 2 17 -6 0 -11 5 -11 11 0 5 4 8 8 5 10 -6 9 25 -2 42
-4 7 -2 12 5 12 8 0 8 4 -1 15 -10 12 -10 15 0 15 10 0 10 3 1 14 -9 11 -9 15
1 19 11 4 11 6 0 6 -10 1 -10 6 -2 21 8 15 8 20 -1 20 -8 0 -8 4 1 15 10 12
10 15 0 15 -10 0 -10 3 0 15 10 12 10 15 0 15 -10 0 -10 3 0 15 10 12 10 15 0
15 -10 0 -10 3 0 15 8 9 8 15 2 15 -7 0 -8 10 -2 29 6 21 5 31 -3 35 -8 3 -7
5 2 5 11 1 11 4 1 16 -10 12 -10 15 0 15 10 0 10 3 0 15 -10 12 -10 15 1 15
10 0 10 3 1 12 -8 8 -8 17 -1 31 8 14 8 18 0 13 -6 -4 -11 -2 -11 3 0 6 5 11
11 11 8 0 8 5 -1 15 -10 12 -10 15 0 15 10 0 10 3 0 15 -9 10 -9 15 -1 15 6 0
11 5 11 11 0 5 -4 8 -8 5 -4 -2 -8 4 -8 14 0 10 3 17 6 15 3 -2 5 25 5 60 0
35 -3 61 -7 58 -5 -2 -8 1 -8 6 0 6 5 11 11 11 8 0 8 5 -1 15 -10 12 -10 15 0
15 10 0 10 3 0 15 -7 9 -8 15 -2 15 12 0 10 33 -3 42 -6 5 -5 8 4 8 11 0 11 3
1 15 -10 12 -10 15 0 15 10 0 10 3 0 15 -10 12 -10 15 1 15 10 0 10 3 1 12 -6
6 -8 17 -3 27 10 18 8 51 -3 69 -4 7 -2 12 5 12 8 0 8 4 -1 15 -10 12 -10 15
0 15 10 0 10 3 1 14 -9 11 -9 15 1 19 11 4 11 6 0 6 -10 1 -10 6 -2 21 8 15 8
20 -1 20 -8 0 -8 4 1 15 10 12 10 15 0 15 -10 0 -10 3 0 15 10 12 10 15 0 15
-10 0 -10 3 0 15 10 12 10 15 0 15 -10 0 -10 3 0 15 9 11 9 15 1 15 -8 0 -9 6
-4 18 10 21 10 43 0 60 -5 7 -3 12 4 12 8 0 8 4 -1 15 -10 12 -10 15 0 15 10
0 10 3 1 14 -9 11 -9 15 1 19 11 4 11 6 0 6 -10 1 -10 6 -2 21 8 15 8 20 -1
20 -8 0 -8 4 1 15 10 12 10 15 0 15 -10 0 -10 3 0 15 10 12 10 15 0 15 -10 0
-10 3 0 15 10 12 10 15 0 15 -10 0 -10 3 0 15 8 9 8 15 2 15 -7 0 -8 10 -2 29
6 21 5 31 -3 35 -8 3 -7 5 2 5 11 1 11 4 1 16 -10 12 -10 15 0 15 10 0 10 3 0
15 -10 12 -10 15 1 15 10 0 10 3 1 12 -8 8 -8 17 -1 31 8 14 8 18 0 13 -6 -4
-11 -2 -11 3 0 6 5 11 11 11 8 0 8 5 -1 15 -10 12 -10 15 0 15 10 0 10 3 0 15
-9 10 -9 15 -1 15 6 0 11 5 11 11 0 5 -4 8 -8 5 -4 -2 -8 4 -8 14 0 10 3 17 6
15 3 -2 5 25 5 60 0 35 -3 61 -7 58 -5 -2 -8 1 -8 6 0 6 5 11 11 11 8 0 8 5
-1 15 -10 12 -10 15 0 15 10 0 10 3 0 15 -7 9 -8 15 -2 15 12 0 10 33 -3 42
-6 5 -5 8 4 8 11 0 11 3 1 15 -10 12 -10 15 0 15 10 0 10 3 0 15 -10 12 -10
15 1 15 10 0 10 3 1 12 -6 6 -8 17 -3 27 10 18 8 51 -3 69 -4 7 -2 12 5 12 8
0 8 4 -1 15 -10 12 -10 15 0 15 10 0 10 3 1 14 -9 11 -9 15 1 19 11 4 11 6 0
6 -10 1 -10 6 -2 21 8 15 8 20 -1 20 -8 0 -8 4 1 15 10 12 10 15 0 15 -10 0
-10 3 0 15 10 12 10 15 0 15 -10 0 -10 3 0 15 10 12 10 15 0 15 -10 0 -10 3 0
15 9 11 9 15 1 15 -8 0 -9 6 -4 18 10 21 10 43 0 60 -5 7 -3 12 4 12 8 0 8 4
-1 15 -10 12 -10 15 0 15 10 0 10 3 1 14 -9 11 -9 15 1 19 11 4 11 6 0 6 -10
1 -10 6 -2 21 8 15 8 20 -1 20 -8 0 -8 4 1 15 10 12 10 15 0 15 -10 0 -10 3 0
15 10 12 10 15 0 15 -10 0 -10 3 0 15 10 12 10 15 0 15 -10 0 -10 3 0 15 8 9
8 15 2 15 -7 0 -8 10 -2 29 6 21 5 31 -3 35 -8 3 -7 5 2 5 11 1 11 4 1 16 -10
12 -10 15 0 15 10 0 10 3 0 15 -10 12 -10 15 1 15 10 0 10 3 1 12 -8 8 -8 17
-1 31 8 14 8 18 0 13 -6 -4 -11 -2 -11 3 0 6 5 11 11 11 8 0 8 5 -1 15 -10 12
-10 15 0 15 10 0 10 3 0 15 -9 10 -9 15 -1 15 6 0 11 5 11 11 0 5 -4 8 -8 5
-4 -2 -8 4 -8 14 0 10 3 17 6 15 3 -2 5 25 5 60 0 35 -3 61 -7 58 -5 -2 -8 1
-8 6 0 6 5 11 11 11 8 0 8 5 -1 15 -10 12 -10 15 0 15 10 0 10 3 0 15 -7 9 -8
15 -2 15 12 0 10 33 -3 42 -6 5 -5 8 4 8 11 0 11 3 1 15 -10 12 -10 15 0 15
10 0 10 3 0 15 -10 12 -10 15 1 15 10 0 10 3 1 12 -6 6 -8 17 -3 27 10 18 8
51 -3 69 -4 7 -2 12 5 12 8 0 8 4 -1 15 -10 12 -10 15 0 15 10 0 10 3 1 14 -9
11 -9 15 1 19 11 4 11 6 0 6 -10 1 -10 6 -2 21 8 15 8 20 -1 20 -8 0 -8 4 1
15 10 12 10 15 0 15 -10 0 -10 3 0 15 10 12 10 15 0 15 -10 0 -10 3 0 15 10
12 10 15 0 15 -10 0 -10 3 0 15 9 11 9 15 1 15 -8 0 -9 6 -4 18 10 21 10 43 0
60 -5 7 -3 12 4 12 8 0 8 4 -1 15 -10 12 -10 15 0 15 10 0 10 3 1 14 -9 11 -9
15 1 19 11 4 11 6 0 6 -10 1 -10 6 -1 22 9 17 8 20 -3 13 -11 -6 -11 -5 1 9
10 13 10 17 1 17 -10 0 -10 3 -1 14 8 9 8 16 2 20 -6 4 -7 14 -4 23 4 9 2 14
-3 10 -5 -3 -10 3 -10 14 0 10 4 19 8 19 5 0 5 8 0 18 -5 9 -7 23 -5 30 3 6 1
12 -4 12 -5 0 -9 9 -10 20 -1 13 3 18 10 14 7 -3 3 2 -7 10 -13 10 -15 16 -7
16 10 0 11 3 2 14 -6 8 -11 18 -10 22 1 5 0 11 -1 14 -1 3 -3 12 -5 20 -7 31
-30 85 -39 91 -5 4 -5 12 -2 18 4 6 2 11 -4 11 -6 0 -9 4 -6 9 3 5 -1 14 -9
21 -8 7 -13 16 -10 20 3 4 -2 11 -11 14 -8 3 -13 10 -10 14 3 5 -4 14 -14 22
-10 8 -17 17 -15 20 2 4 -25 33 -60 66 -83 77 -95 86 -95 77 0 -4 -7 2 -15 14
-9 13 -22 20 -30 17 -8 -4 -15 -1 -15 6 0 6 -4 9 -9 6 -5 -3 -20 4 -35 15 -15
12 -26 16 -26 9 0 -9 -3 -10 -13 -1 -8 6 -17 8 -20 4 -4 -3 -7 -1 -7 5 0 7
-13 12 -28 12 -16 0 -32 3 -36 7 -8 8 -27 12 -78 15 -21 2 -38 7 -38 11 0 4
-9 3 -20 -3 -14 -8 -20 -8 -20 0 0 6 -4 8 -10 5 -5 -3 -10 -1 -10 4 0 6 -5 11
-11 11 -5 0 -7 -4 -4 -10 4 -7 -3 -7 -19 0 -17 6 -26 6 -26 0 0 -6 -5 -10 -11
-10 -5 0 -8 3 -6 8 3 4 -417 7 -933 6 -761 0 -941 -3 -954 -13 -9 -8 -16 -9
-16 -4 0 5 -9 9 -20 9 -11 0 -20 -4 -20 -9 0 -4 -4 -6 -9 -2 -5 3 -12 2 -14
-2 -3 -5 -24 -8 -46 -7 -23 0 -41 -3 -41 -8 0 -5 -4 -6 -10 -3 -5 3 -10 1 -10
-6 0 -8 -3 -9 -14 0 -10 9 -16 8 -26 -4 -7 -8 -16 -12 -21 -9 -5 3 -9 0 -9 -6
0 -6 -4 -9 -9 -5 -5 3 -12 1 -16 -5 -4 -6 -11 -8 -16 -5 -5 4 -12 -1 -15 -9
-3 -9 -10 -13 -16 -10 -5 3 -16 -2 -24 -12 -9 -11 -12 -12 -8 -4 7 13 -19 -5
-76 -53 -8 -6 -16 -11 -18 -9 -1 1 -15 -12 -30 -30 -15 -18 -31 -36 -37 -40
-6 -5 -6 -8 0 -8 5 0 -1 -7 -13 -16 -12 -8 -20 -20 -17 -25 4 -5 1 -9 -6 -9
-7 0 -9 -3 -6 -6 3 -4 -2 -18 -13 -32 -11 -13 -17 -28 -14 -33 3 -5 0 -9 -6
-9 -6 0 -8 -4 -5 -10 3 -5 1 -10 -4 -10 -6 0 -11 -12 -11 -26 0 -16 -4 -23
-12 -18 -6 4 -8 3 -5 -3 4 -6 2 -25 -4 -44 -6 -19 -13 -47 -16 -64 -3 -16 -9
-35 -14 -41 -5 -6 -4 -15 3 -22 9 -9 9 -12 -1 -12 -7 0 -9 -4 -6 -10 3 -5 3
-15 -1 -21 -9 -16 -11 -3568 -1 -3562 4 2 7 -1 7 -6 0 -6 -5 -11 -11 -11 -5 0
-7 -4 -4 -10 3 -5 1 -11 -4 -11 -21 -3 -26 -4 -38 -12 -8 -5 -13 -3 -13 4 0
10 -3 10 -12 1 -8 -8 -17 -8 -31 -1 -11 6 -17 7 -14 2 3 -5 -3 -9 -13 -9 -10
0 -16 4 -14 8 3 4 0 8 -5 8 -6 0 -11 -5 -11 -11 0 -8 -5 -8 -15 1 -12 10 -15
10 -15 0 0 -10 -3 -10 -15 0 -10 9 -15 9 -15 1 0 -6 -5 -11 -11 -11 -5 0 -7 5
-3 11 5 8 1 8 -13 0 -14 -7 -23 -7 -31 1 -9 9 -12 9 -12 -1 0 -11 -3 -11 -15
-1 -12 10 -15 10 -15 0 0 -10 -3 -10 -14 -1 -11 9 -15 9 -19 -1 -4 -11 -6 -11
-6 0 -1 8 -7 10 -18 5 -22 -10 -44 -10 -60 0 -8 5 -13 3 -13 -4 0 -8 -4 -8
-15 1 -12 10 -15 10 -15 0 0 -10 -3 -10 -14 -1 -11 9 -15 9 -19 -1 -4 -11 -6
-11 -6 0 -1 8 -7 10 -18 5 -22 -10 -44 -10 -60 0 -8 5 -13 3 -13 -4 0 -8 -4
-8 -15 1 -12 10 -15 10 -15 0 0 -10 -3 -10 -14 -1 -11 9 -15 9 -19 -1 -4 -11
-6 -11 -6 0 -1 8 -7 10 -18 5 -22 -10 -44 -10 -60 0 -8 5 -13 3 -13 -4 0 -8
-4 -8 -15 1 -12 10 -15 10 -15 0 0 -10 -3 -10 -14 -1 -11 9 -15 9 -19 -1 -4
-9 -6 -9 -6 -1 -1 8 -10 9 -30 3 -21 -6 -31 -5 -35 3 -3 8 -5 7 -5 -2 -1 -11
-4 -11 -16 -1 -12 10 -15 10 -15 0 0 -10 -3 -10 -15 0 -12 10 -15 10 -15 -1 0
-10 -3 -10 -12 -1 -8 8 -17 8 -31 1 -14 -8 -18 -8 -13 0 4 6 2 11 -3 11 -6 0
-11 -5 -11 -11 0 -8 -5 -8 -15 1 -12 10 -15 10 -15 0 0 -10 -3 -10 -15 0 -10
9 -15 9 -15 1 0 -6 -5 -11 -11 -11 -5 0 -8 3 -6 8 3 4 -23 7 -58 7 -35 0 -62
-2 -60 -5 2 -3 -5 -6 -15 -6 -10 0 -16 4 -14 8 3 4 0 8 -5 8 -6 0 -11 -5 -11
-11 0 -8 -5 -8 -15 1 -12 10 -15 10 -15 0 0 -10 -3 -10 -15 0 -8 7 -15 8 -15
3 0 -5 -9 -9 -20 -9 -11 0 -20 4 -20 9 0 5 -7 4 -15 -3 -12 -10 -15 -10 -15 0
0 10 -3 10 -15 0 -12 -10 -15 -10 -15 0 0 10 -3 10 -15 0 -12 -10 -15 -10 -15
0 0 10 -3 10 -15 0 -11 -9 -15 -9 -15 -1 0 8 -5 9 -19 1 -14 -7 -21 -6 -24 3
-4 9 -6 8 -6 -2 -1 -11 -4 -11 -16 -1 -12 10 -15 10 -15 0 0 -10 -3 -10 -15 0
-12 10 -15 10 -15 -1 0 -10 -3 -10 -12 -1 -8 8 -17 8 -31 1 -14 -8 -18 -8 -13
0 4 6 2 11 -3 11 -6 0 -11 -5 -11 -11 0 -8 -5 -8 -15 1 -12 10 -15 10 -15 0 0
-10 -3 -10 -15 0 -10 9 -15 9 -15 1 0 -6 -5 -11 -11 -11 -5 0 -8 3 -6 8 3 4
-23 7 -58 7 -35 0 -62 -2 -60 -5 2 -3 -5 -6 -15 -6 -10 0 -16 4 -14 8 3 4 0 8
-5 8 -6 0 -11 -5 -11 -11 0 -8 -5 -8 -15 1 -12 10 -15 10 -15 0 0 -10 -3 -10
-15 0 -9 7 -15 8 -15 2 0 -12 -33 -10 -42 3 -5 6 -8 5 -8 -4 0 -11 -3 -11 -15
-1 -12 10 -15 10 -15 0 0 -10 -3 -10 -15 0 -11 9 -15 9 -15 1 0 -7 -5 -9 -12
-4 -17 10 -39 10 -60 1 -10 -5 -18 -3 -21 5 -4 9 -6 8 -6 -2 -1 -11 -4 -11
-16 -1 -12 10 -15 10 -15 0 0 -10 -3 -10 -15 0 -12 10 -15 10 -15 -1 0 -10 -3
-10 -12 -1 -8 8 -17 8 -31 1 -14 -8 -18 -8 -13 0 4 6 2 11 -3 11 -6 0 -11 -5
-11 -11 0 -8 -5 -8 -15 1 -12 10 -15 10 -15 0 0 -10 -3 -10 -15 0 -10 9 -15 9
-15 1 0 -6 -5 -11 -11 -11 -5 0 -8 4 -5 9 6 9 -37 7 -53 -3 -5 -4 -13 -2 -16
4 -5 8 -11 7 -21 -1 -11 -9 -14 -9 -14 1 0 10 -3 10 -15 0 -12 -10 -15 -10
-15 0 0 10 -3 10 -14 1 -11 -9 -16 -9 -21 0 -6 8 -10 7 -16 -2 -6 -10 -9 -10
-9 -2 0 7 -6 10 -13 7 -8 -3 -14 1 -14 8 0 7 -3 24 -7 38 -4 14 -4 20 1 13 6
-9 8 3420 1 3490 -1 9 -5 17 -9 17 -5 0 -4 11 1 25 6 15 6 26 0 30 -6 4 -10
24 -10 46 0 21 -4 39 -8 39 -5 0 -8 14 -7 30 1 17 -2 30 -7 30 -5 0 -6 5 -3
10 3 6 2 10 -3 10 -5 0 -9 7 -10 15 -1 8 -3 22 -4 30 -1 8 -7 16 -14 19 -7 3
-10 14 -7 25 3 13 1 21 -8 21 -7 0 -9 3 -6 7 4 3 -1 12 -11 20 -11 10 -12 12
-2 8 8 -4 6 1 -4 9 -11 9 -17 16 -13 16 10 0 -20 35 -88 104 -62 63 -80 77
-128 99 -15 7 -24 17 -20 22 5 4 3 5 -3 2 -6 -3 -25 3 -42 13 -22 14 -32 16
-32 7 0 -6 -7 -3 -15 7 -8 11 -15 16 -15 12 0 -5 -8 -2 -17 5 -14 12 -15 12
-9 0 5 -8 -3 -6 -20 5 -17 12 -25 14 -20 5 6 -8 -1 -7 -18 4 -18 12 -26 14
-26 5 0 -9 -3 -10 -13 -1 -8 6 -17 8 -20 4 -4 -3 -7 -1 -7 6 0 7 -5 9 -10 6
-6 -4 -18 -1 -27 7 -12 9 -15 9 -9 1 7 -13 -6 -18 -17 -7 -3 4 -30 7 -59 8
-29 0 -56 5 -60 10 -4 6 -12 5 -21 -3 -12 -9 -16 -9 -20 1 -4 10 -6 10 -6 -1
-1 -11 -4 -11 -16 -1 -9 7 -15 8 -15 2 0 -12 -32 -11 -41 2 -4 4 -10 3 -14 -3z"/>
</g>
</svg>
